<svg version="1.0" xmlns="http://www.w3.org/2000/svg"
 width="287.000000pt" height="300.000000pt" viewBox="0 0 287.000000 300.000000"
 preserveAspectRatio="xMidYMid meet">
<g transform="translate(0.000000,300.000000) scale(0.100000,-0.100000)"
fill="#f2f2f2" stroke="none">
<path d="M189 2973 c-6 -16 -51 -135 -100 -266 l-89 -238 2 -1037 3 -1037 358
-3 357 -2 0 -195 0 -195 193 0 192 0 195 195 195 195 295 0 295 0 393 393 392
392 0 913 0 912 -1335 0 -1335 0 -11 -27z m2421 -950 l0 -718 -227 -227 -228
-228 -360 0 -360 0 -190 -190 c-104 -105 -193 -190 -197 -190 -5 0 -8 86 -8
190 l0 190 -290 0 -290 0 0 945 0 945 1075 0 1075 0 0 -717z"/>
<path d="M1180 1830 l0 -390 125 0 125 0 0 390 0 390 -125 0 -125 0 0 -390z"/>
<path d="M1897 2213 c-4 -3 -7 -179 -7 -390 l0 -383 130 0 130 0 0 390 0 390
-123 0 c-68 0 -127 -3 -130 -7z"/>
</g>
</svg>
